<svg width="2159" height="292" xmlns="http://www.w3.org/2000/svg"><style>
        text {
            font-family: Consolas, Courier;
            font-size: 20px;
        }
        text.default {
            fill: rgb(0, 0, 0);
            text-anchor: middle;
        }
        text.attribute {
            fill: rgb(27, 14, 139);
            text-anchor: start;
        }
        text.variable {
            fill: rgb(0, 0, 0);
            text-anchor: start;
        }
        text.id { 
            fill: rgb(150, 100, 28);
            text-anchor: middle;
        }
        text.type {
            fill: rgb(27, 14, 139);
            text-anchor: middle;
        }
        text.value {
            fill: rgb(27, 14, 139);
            text-anchor: middle;
        }
        path {
            stroke: rgb(0, 0, 0);
        }
    </style><g><path d="M50.03387502096594 24.981137046590447 L2120.866375967488 25.23432659842074 L2120.9792323675006 154.9256116244942 L50.3987259592861 154.70078069902956" stroke="none" stroke-width="0" fill="yellow"/><path d="M49.91338096514344 24.93256843909621 C579.1875312822499 25.28981058593318, 1108.374668812491 25.430943441348525, 2120.9259172286093 24.950542200654745 M50.01788978032768 25.03758619733155 C855.759534247946 25.70657556224242, 1661.7134680679815 25.817901643995196, 2120.942354642674 24.960956532433627 M2120.7227786634116 24.848861547932028 C2121.407392639387 59.483614976145326, 2120.8095053021793 94.24023997113109, 2120.662405226007 154.96266458891333 M2121.16626530122 25.192355196364225 C2121.0111821493692 69.89683146812021, 2120.910373487193 114.68897119965405, 2121.1789333088323 155.08975064624101 M2121.0668709267675 155.08650599822403 C1547.9590536735018 155.75378385399057, 974.8191943364961 155.6088073954411, 49.9245368899405 154.88021431788803 M2120.951924142167 154.97026654191316 C1622.1633707964606 156.7208002188705, 1123.4276683266087 156.62258085994944, 49.94674163512886 155.04546930499376 M50.028428158536556 155.25564071796833 C50.24258446125314 121.09422902893274, 50.4645724597387 86.7434340238571, 50.355024478212 24.78658777140081 M50.135622064583 154.81267948616295 C49.61699069669471 116.53043805956841, 49.86538132956252 78.29949534665792, 50.18846608232707 24.846260009892283" stroke="#000" stroke-width="4" fill="none"/></g><g><path d="M43.56690482571721 18.662842195481062 C576.4580020231195 20.45895755119249, 1108.9140352861957 21.164621828269212, 2126.6295861430467 18.752711003273724 M44.08944890163839 19.18793098665774 C854.1221183515155 22.555388496015222, 1665.2162345634774 23.112018904779106, 2126.7117732133715 18.804782662168144 M2125.6138933170587 18.244307739660144 C2129.042322771903 56.304614026658236, 2126.052886085864 94.97427814751863, 2125.3120261300355 160.8133229445666 M2127.8313265061006 19.96177598182112 C2127.071371570807 67.92298510298133, 2126.5673282599264 116.3225115230307, 2127.8946665441617 161.44875323120505 M2127.334354633838 161.4325299911201 C1550.8425465616397 164.7882962884791, 974.1905280707402 164.06341399573162, 43.622684449702504 160.4010715894401 M2126.759620710835 160.85133270956575 C1625.0183087603189 169.65190205257758, 1123.5412511890754 169.16080525797233, 43.73370817564428 161.22734652496874 M44.14214079268277 162.27820358984172 C45.30960880378261 124.07270445320755, 46.419548796210435 84.92028873637318, 45.775122391059995 17.932938857004046 M44.67811032291502 160.0633974308148 C41.97672923320904 118.29797793291509, 43.21868239754811 76.78905200343578, 44.94233041163534 18.231300049461424" stroke="rgb(0, 0, 0)" stroke-width="1" fill="none"/></g><text x="1085.5" y="115" style="font-weight:bolder; font-size:22px; " class="value">"I am a very very very very very very very very very very very very very very very very very very very very very very very very very very very long string"</text><g><path d="M49.78345241285861 24.83142109774053 C68.01267071198671 24.89872864505276, 86.02435704395175 25.25156078359112, 119.81479307152331 24.876355501636862 M50.044724450819196 25.09396549332887 C77.04566995538771 24.88961056014523, 104.5773388409987 25.167925764527173, 119.85588660668581 24.902391331084072 M119.72277866341173 24.848861547932028 C120.40024653943256 38.20590460542589, 119.80235920222476 51.68481922969222, 119.66240522600711 74.96266458891333 M120.16626530122012 25.192355196364225 C119.99056771742181 42.24940276928246, 119.88975905524568 59.39411380197853, 120.17893330883234 75.08975064624101 M120.16717731691897 75.21626499556005 C100.75703618768603 75.26890071535483, 81.2667898491025 74.90645956898109, 49.81134222485125 74.70053579472005 M119.87981035541743 74.92566635478288 C102.98204041942954 75.30825815515593, 86.21639767307788 75.0627097578533, 49.86685408782214 75.11367326248437 M50.028428158536556 75.25564071796835 C50.113669131230566 61.97636435311288, 50.335657129716125 48.50770467221737, 50.355024478212 24.78658777140081 M50.135622064583 74.81267948616296 C49.761289697047324 60.09670382887125, 50.009680329915135 45.432026885263625, 50.18846608232707 24.846260009892283" stroke="#000" stroke-width="4" fill="none"/></g><g><path d="M2050.7834524128584 24.83142109774053 C2069.0126707119866 24.89872864505276, 2087.0243570439516 25.25156078359112, 2120.814793071523 24.876355501636862 M2051.044724450819 25.09396549332887 C2078.045669955388 24.88961056014523, 2105.577338840999 25.167925764527173, 2120.855886606686 24.902391331084072 M2120.7227786634116 24.848861547932028 C2121.4002465394324 38.20590460542589, 2120.8023592022246 51.68481922969222, 2120.662405226007 74.96266458891333 M2121.16626530122 25.192355196364225 C2120.990567717422 42.24940276928246, 2120.8897590552456 59.39411380197853, 2121.1789333088323 75.08975064624101 M2121.167177316919 75.21626499556005 C2101.757036187686 75.26890071535483, 2082.2667898491027 74.90645956898109, 2050.811342224851 74.70053579472005 M2120.8798103554172 74.92566635478288 C2103.9820404194297 75.30825815515593, 2087.216397673078 75.0627097578533, 2050.866854087822 75.11367326248437 M2051.0284281585364 75.25564071796835 C2051.1136691312304 61.97636435311288, 2051.3356571297163 48.50770467221737, 2051.355024478212 24.78658777140081 M2051.135622064583 74.81267948616296 C2050.7612896970472 60.09670382887125, 2051.009680329915 45.432026885263625, 2051.188466082327 24.846260009892283" stroke="#000" stroke-width="4" fill="none"/></g><text x="85" y="55" style="font-weight:bolder; font-size:22px; " class="id">id1</text><text x="2086" y="55" style="font-weight:bolder; font-size:22px; " class="type">str</text></svg>