<svg width="1949" height="292" xmlns="http://www.w3.org/2000/svg"><style>
        text {
            font-family: Consolas, Courier;
            font-size: 20px;
        }
        text.default {
            fill: rgb(0, 0, 0);
            text-anchor: middle;
        }
        text.attribute {
            fill: rgb(27, 14, 139);
            text-anchor: start;
        }
        text.variable {
            fill: rgb(0, 0, 0);
            text-anchor: start;
        }
        text.id { 
            fill: rgb(150, 100, 28);
            text-anchor: middle;
        }
        text.type {
            fill: rgb(27, 14, 139);
            text-anchor: middle;
        }
        text.value {
            fill: rgb(27, 14, 139);
            text-anchor: middle;
        }
        path {
            stroke: rgb(0, 0, 0);
        }
    </style><g><path d="M50.03387502096594 24.981137046590447 L1910.8663759674878 25.23432659842074 L1910.9792323675006 154.9256116244942 L50.3987259592861 154.70078069902956" stroke="none" stroke-width="0" fill="yellow"/><path d="M49.91338096514344 24.93256843909621 C525.5329462458008 25.25514441059008, 1001.0654987395928 25.396277266005427, 1910.9259172286093 24.950542200654745 M50.01788978032768 25.03758619733155 C774.047509815339 25.627788165431472, 1498.2894192027675 25.739114247184247, 1910.9423546426742 24.960956532433627 M1910.7227786634116 24.848861547932028 C1911.4073926393874 59.483614976145326, 1910.8095053021796 94.24023997113109, 1910.6624052260072 154.96266458891333 M1911.1662653012202 25.192355196364225 C1911.0111821493695 69.89683146812021, 1910.9103734871933 114.68897119965405, 1911.1789333088323 155.08975064624101 M1911.0668709267675 155.08650599822403 C1396.070747147966 155.68596428914887, 881.0425812854244 155.5409878305994, 49.9245368899405 154.88021431788803 M1910.951924142167 154.97026654191316 C1462.7390847112797 156.55314686508254, 1014.5790961562469 156.45492750616148, 49.94674163512886 155.04546930499376 M50.028428158536556 155.25564071796833 C50.24258446125314 121.09422902893274, 50.4645724597387 86.7434340238571, 50.355024478212 24.78658777140081 M50.135622064583 154.81267948616295 C49.61699069669471 116.53043805956841, 49.86538132956252 78.29949534665792, 50.18846608232707 24.846260009892283" stroke="#000" stroke-width="4" fill="none"/></g><g><path d="M43.56690482571721 18.662842195481062 C522.8034169866704 20.28562667447701, 1001.6048652132973 20.991290951553733, 1916.6295861430467 18.752711003273724 M44.08944890163839 19.18793098665774 C772.4100939189085 22.16145151196048, 1501.7921856982634 22.718081920724362, 1916.7117732133715 18.804782662168144 M1915.6138933170587 18.244307739660144 C1919.0423227719032 56.304614026658236, 1916.0528860858642 94.97427814751863, 1915.3120261300355 160.8133229445666 M1917.8313265061006 19.96177598182112 C1917.071371570807 67.92298510298133, 1916.5673282599264 116.3225115230307, 1917.8946665441617 161.44875323120505 M1917.3343546338378 161.4325299911201 C1398.9542400361038 164.44919846427067, 880.4139150196685 163.72431617152318, 43.622684449702504 160.4010715894401 M1916.759620710835 160.85133270956575 C1465.594022675138 168.81363528363778, 1014.6926790187135 168.32253848903252, 43.73370817564428 161.22734652496874 M44.14214079268277 162.27820358984172 C45.30960880378261 124.07270445320755, 46.419548796210435 84.92028873637318, 45.775122391059995 17.932938857004046 M44.67811032291502 160.0633974308148 C41.97672923320904 118.29797793291509, 43.21868239754811 76.78905200343578, 44.94233041163534 18.231300049461424" stroke="rgb(0, 0, 0)" stroke-width="1" fill="none"/></g><text x="980.5" y="115" style="font-weight:bolder; font-size:22px; " class="value">"I am a very very very very very very very very very very very very very very very very very very very very very very very very very very very long string"</text><g><path d="M49.78345241285861 24.83142109774053 C65.4576904721558 24.894601719416677, 80.91439656428993 25.247433857955038, 109.81479307152331 24.876355501636862 M50.044724450819196 25.09396549332887 C73.15462117288261 24.880231108143928, 96.79524127598852 25.15854631252587, 109.85588660668581 24.902391331084072 M109.72277866341173 24.848861547932028 C110.40024653943256 38.20590460542589, 109.80235920222476 51.68481922969222, 109.66240522600711 74.96266458891333 M110.16626530122012 25.192355196364225 C109.99056771742181 42.24940276928246, 109.88975905524568 59.39411380197853, 110.17893330883234 75.08975064624101 M110.16717731691897 75.21626499556005 C93.52425968647003 75.26082695763557, 76.8012368466705 74.89838581126183, 49.81134222485125 74.70053579472005 M109.87981035541743 74.92566635478288 C95.39040774870664 75.28829942256212, 81.03313233163207 75.04275102525949, 49.86685408782214 75.11367326248437 M50.028428158536556 75.25564071796835 C50.113669131230566 61.97636435311288, 50.335657129716125 48.50770467221737, 50.355024478212 24.78658777140081 M50.135622064583 74.81267948616296 C49.761289697047324 60.09670382887125, 50.009680329915135 45.432026885263625, 50.18846608232707 24.846260009892283" stroke="#000" stroke-width="4" fill="none"/></g><g><path d="M1850.7834524128587 24.83142109774053 C1866.4576904721557 24.894601719416677, 1881.91439656429 25.247433857955038, 1910.8147930715234 24.876355501636862 M1851.044724450819 25.09396549332887 C1874.1546211728826 24.880231108143928, 1897.7952412759885 25.15854631252587, 1910.8558866066858 24.902391331084072 M1910.7227786634116 24.848861547932028 C1911.4002465394326 38.20590460542589, 1910.8023592022248 51.68481922969222, 1910.6624052260072 74.96266458891333 M1911.1662653012202 25.192355196364225 C1910.990567717422 42.24940276928246, 1910.8897590552458 59.39411380197853, 1911.1789333088323 75.08975064624101 M1911.167177316919 75.21626499556005 C1894.52425968647 75.26082695763557, 1877.8012368466705 74.89838581126183, 1850.8113422248512 74.70053579472005 M1910.8798103554175 74.92566635478288 C1896.3904077487066 75.28829942256212, 1882.033132331632 75.04275102525949, 1850.866854087822 75.11367326248437 M1851.0284281585366 75.25564071796835 C1851.1136691312306 61.97636435311288, 1851.335657129716 48.50770467221737, 1851.355024478212 24.78658777140081 M1851.135622064583 74.81267948616296 C1850.7612896970475 60.09670382887125, 1851.0096803299152 45.432026885263625, 1851.188466082327 24.846260009892283" stroke="#000" stroke-width="4" fill="none"/></g><text x="80" y="55" style="font-weight:bolder; font-size:22px; " class="id">id1</text><text x="1881" y="55" style="font-weight:bolder; font-size:22px; " class="type">str</text></svg>